<svg width="45" height="45" viewBox="0 0 45 45" fill="none" xmlns="http://www.w3.org/2000/svg">
<rect x="0.75" y="0.75" width="43.5" height="43.5" rx="11.25" stroke="#28282B" stroke-width="1.5"/>
<path d="M12.3774 24.8439C12.7862 21.3412 13.3835 18.7149 13.9374 16.849C14.3916 15.319 14.6187 14.554 15.55 13.859C16.4813 13.1641 17.4331 13.1641 19.3369 13.1641H25.6632C27.567 13.1641 28.5188 13.1641 29.4501 13.859C30.3813 14.554 30.6085 15.319 31.0626 16.849C31.6166 18.7149 32.2138 21.3412 32.6226 24.8439C33.1044 28.972 33.3452 31.0361 31.9532 32.6C30.5611 34.1641 28.3051 34.1641 23.7931 34.1641H21.2069C16.6949 34.1641 14.4389 34.1641 13.0469 32.6C11.6548 31.0361 11.8957 28.972 12.3774 24.8439Z" stroke="#28282B" stroke-width="1.5" stroke-linecap="round" stroke-linejoin="round"/>
<path opacity="0.6" d="M19 17.8359C19 19.7689 20.5669 21.3359 22.5 21.3359C24.433 21.3359 26 19.7689 26 17.8359" stroke="#FF5F15" stroke-width="1.5" stroke-linecap="round" stroke-linejoin="round"/>
</svg>
