<svg width="64" height="64" viewBox="0 0 64 64" fill="none" xmlns="http://www.w3.org/2000/svg">
<rect width="64" height="64" rx="18" fill="#FF5F15"/>
<path d="M35.8404 18.1877C38.0527 18.1877 39.6079 18.1481 41.0754 19.2433C42.5298 20.3289 42.8797 21.6153 43.4163 23.4227C44.1069 25.7496 44.8445 28.9995 45.3475 33.3103L45.3559 33.3865C45.6402 35.8222 45.8688 37.777 45.8 39.356C45.7279 41.0073 45.3282 42.3715 44.2725 43.5576C43.2031 44.7592 41.8243 45.3052 40.1029 45.5637C38.444 45.8128 36.3252 45.8128 33.6628 45.8126H30.3369C27.6747 45.8128 25.5559 45.8128 23.897 45.5637C22.1755 45.3052 20.7967 44.7592 19.7272 43.5576C18.6715 42.3715 18.2719 41.0073 18.1999 39.356C18.131 37.777 18.3597 35.8222 18.644 33.3865L18.6523 33.3103C19.1553 28.9995 19.8928 25.7496 20.5836 23.4227C21.1202 21.615 21.4708 20.329 22.9258 19.2433C24.3933 18.1482 25.9472 18.1877 28.1594 18.1877H35.8404ZM36.25 23.5002C35.4675 23.5002 34.8333 24.1344 34.8333 24.9168C34.8333 26.4817 33.5647 27.7502 32 27.7502C30.4351 27.7502 29.1666 26.4817 29.1666 24.9168C29.1666 24.1344 28.5323 23.5002 27.7499 23.5002C26.9675 23.5002 26.3332 24.1344 26.3332 24.9168C26.3332 28.0465 28.8703 30.5835 32 30.5835C35.1295 30.5835 37.6666 28.0465 37.6666 24.9168C37.6666 24.1344 37.0322 23.5002 36.25 23.5002Z" fill="white"/>
</svg>
