<svg width="28" height="28" viewBox="0 0 28 28" fill="none" xmlns="http://www.w3.org/2000/svg">
<rect width="28" height="28" rx="8" fill="#E61313"/>
<path fill-rule="evenodd" clip-rule="evenodd" d="M19.055 16.4379C19.0039 17.2734 18.9633 17.9364 18.8801 18.4659C18.7948 19.0091 18.6583 19.4613 18.3851 19.8569C18.1353 20.2189 17.8136 20.5243 17.4405 20.7539C17.0327 21.0048 16.5774 21.1145 16.0354 21.167L11.9516 21.1669C11.409 21.1143 10.9531 21.0044 10.5451 20.753C10.1718 20.5231 9.84996 20.2171 9.60019 19.8545C9.32715 19.4583 9.19104 19.0053 9.10638 18.4615C9.02383 17.9311 8.98415 17.2672 8.93415 16.4305L8.5 9.16699H19.5L19.055 16.4379ZM12.3333 17.9743C12.0572 17.9743 11.8333 17.7505 11.8333 17.4743V13.4743C11.8333 13.1981 12.0572 12.9743 12.3333 12.9743C12.6095 12.9743 12.8333 13.1981 12.8333 13.4743V17.4743C12.8333 17.7505 12.6095 17.9743 12.3333 17.9743ZM16.1667 13.4743C16.1667 13.1981 15.9428 12.9743 15.6667 12.9743C15.3905 12.9743 15.1667 13.1981 15.1667 13.4743V17.4743C15.1667 17.7505 15.3905 17.9743 15.6667 17.9743C15.9428 17.9743 16.1667 17.7505 16.1667 17.4743V13.4743Z" fill="white"/>
<path fill-rule="evenodd" clip-rule="evenodd" d="M14.8969 6.85485C15.2736 6.88855 15.6277 7.00351 15.9318 7.23028C16.1566 7.39799 16.3128 7.60329 16.4463 7.82563C16.57 8.03166 16.6945 8.28854 16.8357 8.57994L17.1202 9.16681H19.9987C20.3669 9.16681 20.6654 9.46529 20.6654 9.83347C20.6654 10.2017 20.3669 10.5001 19.9987 10.5001C15.9986 10.5001 11.9988 10.5001 7.9987 10.5001C7.63051 10.5001 7.33203 10.2017 7.33203 9.83347C7.33203 9.46529 7.63051 9.16681 7.9987 9.16681H10.9385L11.1757 8.64645C11.3134 8.34431 11.4347 8.07822 11.5565 7.8647C11.6879 7.63439 11.8435 7.42125 12.0711 7.24665C12.3789 7.01051 12.7401 6.8908 13.1253 6.85573C13.4153 6.82933 13.7076 6.83297 13.9987 6.83343C14.3392 6.83398 14.6454 6.83235 14.8969 6.85485ZM12.4039 9.16681H15.6385C15.4874 8.85521 15.3907 8.65772 15.3031 8.51181C15.1749 8.29825 15.0213 8.20464 14.7781 8.18289C14.6052 8.16743 14.38 8.16681 14.0217 8.16681C13.6545 8.16681 13.4234 8.16745 13.2462 8.18357C12.9968 8.20628 12.8413 8.30346 12.7146 8.52545C12.6316 8.67092 12.5413 8.86565 12.4039 9.16681Z" fill="white"/>
</svg>
