<svg width="28" height="28" viewBox="0 0 28 28" fill="none" xmlns="http://www.w3.org/2000/svg">
<rect width="28" height="28" rx="8" fill="#FAFAFA"/>
<path fill-rule="evenodd" clip-rule="evenodd" d="M13.332 19.8337C13.332 19.4655 13.6305 19.167 13.9987 19.167H17.9987C18.3668 19.167 18.6654 19.4655 18.6654 19.8337C18.6654 20.2019 18.3668 20.5003 17.9987 20.5003H13.9987C13.6305 20.5003 13.332 20.2019 13.332 19.8337Z" fill="#28282B"/>
<path d="M18.701 7.69064C18.1881 7.43646 17.5858 7.43646 17.073 7.69064C16.8014 7.82516 16.564 8.06299 16.2573 8.37021L15.668 8.95952L19.0418 12.3334L19.6312 11.744C19.9384 11.4373 20.1762 11.1999 20.3107 10.9284C20.5649 10.4155 20.5649 9.81328 20.3107 9.30036C20.1762 9.02888 19.9384 8.79144 19.6312 8.48473L19.5166 8.37021C19.2099 8.06299 18.9724 7.82516 18.701 7.69064Z" fill="#28282B"/>
<path d="M18.3335 13.0408L14.9597 9.66699L8.37059 16.256C8.04095 16.585 7.78006 16.8454 7.63966 17.1844C7.49925 17.5233 7.4996 17.8919 7.50005 18.3576L7.5001 20.0003C7.5001 20.2765 7.72396 20.5003 8.0001 20.5003L9.64277 20.5004C10.1085 20.5008 10.4771 20.5012 10.8161 20.3608C11.155 20.2204 11.4154 19.9595 11.7444 19.6298L18.3335 13.0408Z" fill="#28282B"/>
</svg>
