<svg width="45" height="45" viewBox="0 0 45 45" fill="none" xmlns="http://www.w3.org/2000/svg">
<rect width="45" height="45" rx="12" fill="#28282B"/>
<path d="M23.922 24.5C25.5103 23.9739 26.9219 23.0181 28 21.7385V24.5H23.922ZM18 21C20.86 21 23 19.945 23 19C23 18.055 20.86 17 18 17C15.14 17 13 18.055 13 19C13 19.945 15.14 21 18 21ZM8 19C8 15.965 12.485 13.5 18 13.5C23.515 13.5 28 15.965 28 19C28 22.035 23.515 24.5 18 24.5C12.485 24.5 8 22.035 8 19ZM12 19C12 20.71 14.58 22 18 22C21.42 22 24 20.71 24 19C24 17.29 21.42 16 18 16C14.58 16 12 17.29 12 19ZM38 26V32C37.9996 32.1325 37.9468 32.2594 37.8531 32.3531C37.7594 32.4468 37.6325 32.4996 37.5 32.5H34.5C34.1025 32.4988 33.7217 32.3404 33.4407 32.0593C33.1596 31.7783 33.0012 31.3975 33 31V27C33.0012 26.6025 33.1596 26.2217 33.4407 25.9407C33.7217 25.6596 34.1025 25.5012 34.5 25.5H37.5C37.6325 25.5004 37.7594 25.5532 37.8531 25.6469C37.9468 25.7406 37.9996 25.8675 38 26ZM35 28C35 27.8674 34.9473 27.7402 34.8536 27.6464C34.7598 27.5527 34.6326 27.5 34.5 27.5C34.3674 27.5 34.2402 27.5527 34.1464 27.6464C34.0527 27.7402 34 27.8674 34 28V30C34 30.1326 34.0527 30.2598 34.1464 30.3536C34.2402 30.4473 34.3674 30.5 34.5 30.5C34.6326 30.5 34.7598 30.4473 34.8536 30.3536C34.9473 30.2598 35 30.1326 35 30V28ZM32.513 25.5H18C13.499 25.5 9.72 23.9765 8 21.7385V27C8 28.2325 8.75 29.368 10 30.286V26.5C10 26.3674 10.0527 26.2402 10.1464 26.1464C10.2402 26.0527 10.3674 26 10.5 26C10.6326 26 10.7598 26.0527 10.8536 26.1464C10.9473 26.2402 11 26.3674 11 26.5V30.921C11.6395 31.2605 12.309 31.54 13 31.756V29.5C13 29.3674 13.0527 29.2402 13.1464 29.1464C13.2402 29.0527 13.3674 29 13.5 29C13.6326 29 13.7598 29.0527 13.8536 29.1464C13.9473 29.2402 14 29.3674 14 29.5V32.0375C14.6587 32.1963 15.3267 32.3136 16 32.389V28C16 27.8674 16.0527 27.7402 16.1464 27.6464C16.2402 27.5527 16.3674 27.5 16.5 27.5C16.6326 27.5 16.7598 27.5527 16.8536 27.6464C16.9473 27.7402 17 27.8674 17 28V32.472C17.329 32.49 17.6623 32.4993 18 32.5H19V30C19 29.8674 19.0527 29.7402 19.1464 29.6464C19.2402 29.5527 19.3674 29.5 19.5 29.5C19.6326 29.5 19.7598 29.5527 19.8536 29.6464C19.9473 29.7402 20 29.8674 20 30V32.5H22V28C22 27.8674 22.0527 27.7402 22.1464 27.6464C22.2402 27.5527 22.3674 27.5 22.5 27.5C22.6326 27.5 22.7598 27.5527 22.8536 27.6464C22.9473 27.7402 23 27.8674 23 28V32.5H25V30C25 29.8674 25.0527 29.7402 25.1464 29.6464C25.2402 29.5527 25.3674 29.5 25.5 29.5C25.6326 29.5 25.7598 29.5527 25.8536 29.6464C25.9473 29.7402 26 29.8674 26 30V32.5H28V28C28 27.8674 28.0527 27.7402 28.1464 27.6464C28.2402 27.5527 28.3674 27.5 28.5 27.5C28.6326 27.5 28.7598 27.5527 28.8536 27.6464C28.9473 27.7402 29 27.8674 29 28V32.5H32.513C32.1822 32.0698 32.0019 31.5427 32 31V27C32.0019 26.4573 32.1822 25.9302 32.513 25.5Z" fill="white"/>
</svg>
