<svg width="48" height="48" viewBox="0 0 48 48" fill="none" xmlns="http://www.w3.org/2000/svg">
<path d="M30.6719 10.6641H17.3385C13.6585 10.6641 10.6719 13.6507 10.6719 17.3307V30.6641C10.6719 34.3441 13.6585 37.3307 17.3385 37.3307H30.6719C34.3519 37.3307 37.3385 34.3441 37.3385 30.6641V17.3307C37.3385 13.6507 34.3519 10.6641 30.6719 10.6641ZM24.0052 30.6641C20.3252 30.6641 17.3385 27.6774 17.3385 23.9974C17.3385 20.3174 20.3252 17.3307 24.0052 17.3307C27.6852 17.3307 30.6719 20.3174 30.6719 23.9974C30.6719 27.6774 27.6852 30.6641 24.0052 30.6641ZM31.1385 18.1574C30.4052 18.1574 29.8052 17.5574 29.8052 16.8241C29.8052 16.0907 30.4052 15.4907 31.1385 15.4907C31.8719 15.4907 32.4719 16.0907 32.4719 16.8241C32.4719 17.5574 31.8719 18.1574 31.1385 18.1574Z" fill="white"/>
<path d="M24 28C26.2091 28 28 26.2091 28 24C28 21.7909 26.2091 20 24 20C21.7909 20 20 21.7909 20 24C20 26.2091 21.7909 28 24 28Z" fill="white"/>
</svg>
