<svg width="266" height="266" viewBox="0 0 266 266" fill="none" xmlns="http://www.w3.org/2000/svg">
<g clip-path="url(#clip0_5292_16055)">
<path d="M178.351 112.099C178.228 119.489 175.873 126.016 172.358 132.197C164.644 145.763 153.95 156.735 142.228 166.811C140.812 168.028 139.35 169.192 137.949 170.426C136.926 171.327 136.019 171.421 134.879 170.533C122.675 161.028 111.496 150.493 102.731 137.666C98.0574 130.827 94.4922 123.381 93.2846 115.062C92.5571 110.05 93.0291 105.018 94.071 100.093C95.5575 93.0653 98.5039 86.6744 103.205 81.1804C107.724 75.8978 113.279 72.0479 119.725 69.459C126.663 66.6723 133.926 65.6018 141.301 66.2011C150.765 66.9701 159.08 70.5812 165.686 77.6454C174.709 87.2946 178.257 98.9631 178.351 112.099ZM139.141 123.196C147.37 121.261 151.234 113.9 151.432 106.088C151.574 100.491 147.002 94.7543 141.271 92.8959C135.042 90.8761 125.583 92.7977 121.962 99.2317C120.075 102.584 119.559 106.202 120.14 109.873C121.038 115.55 123.537 120.19 129.319 122.447C132.446 123.668 135.618 123.394 139.141 123.196Z" fill="#FF5F15"/>
<g filter="url(#filter0_f_5292_16055)">
<ellipse cx="140" cy="217.5" rx="79" ry="12.5" fill="#FF5F15" fill-opacity="0.3"/>
</g>
<path d="M250.866 231.642C247.905 228.3 244.713 225.402 241.438 222.584C240.459 221.741 239.528 221.552 238.262 221.867C227.88 224.456 217.737 227.762 207.815 231.761C204.049 233.278 200.203 234.435 196.132 234.959C186.437 236.208 177.455 228.465 177.294 218.727C177.201 213.095 178.886 207.954 181.037 202.899C182.165 200.248 183.438 197.658 184.633 195.066C178.44 190.838 133.422 186.604 121.738 189.223C124.875 190.439 127.761 191.032 130.646 191.646C137.148 193.03 143.785 193.237 150.362 193.964C152.937 194.249 155.431 194.842 157.665 196.248C160.956 198.321 161.302 201.776 158.515 204.499C156.936 206.042 154.907 206.69 152.916 207.421C146.575 209.751 140.173 211.912 133.939 214.536C124.437 218.536 118.085 225.476 114.236 234.939C112.978 238.033 111.421 241.013 109.302 243.655C106.112 247.634 102.09 249.044 97.1293 247.759C91.9522 246.417 87.3212 243.921 82.8419 241.088C76.8625 237.307 71.1188 233.115 64.3305 230.766C58.1041 228.611 51.6273 227.575 45.1977 226.321C40.5271 225.411 35.8384 224.57 31.3385 222.976C30.2641 222.595 29.58 222.84 28.7771 223.592C25.7215 226.453 22.5653 229.207 19.8839 232.446C19.2336 233.231 18.4384 233.91 17.4487 232.971C16.5597 232.128 17.1079 231.371 17.7561 230.639C24.9906 222.471 33.4155 215.745 42.6744 210.026C57.5603 200.83 73.6998 194.743 90.6768 190.781C99.5109 188.719 108.457 187.375 117.504 186.541C126.313 185.729 135.127 185.61 143.935 185.901C158.699 186.389 173.231 188.622 187.501 192.498C198.47 195.478 209.082 199.399 219.179 204.631C231.917 211.23 243.499 219.396 253.147 230.125C253.448 230.46 253.76 230.786 254.046 231.135C254.515 231.707 254.579 232.333 254.062 232.883C253.493 233.486 252.772 233.487 252.143 233.01C251.689 232.666 251.352 232.169 250.866 231.642ZM110.843 189.972C107.285 190.504 103.706 190.92 100.174 191.588C80.0223 195.397 60.8839 201.943 43.3915 212.857C39.7561 215.126 36.2292 217.552 32.7316 220.469C37.867 222.291 42.9192 223.25 47.9729 224.053C59.8747 225.943 71.106 229.385 81.0399 236.549C85.9941 240.123 91.2571 243.3 97.2467 244.969C101.744 246.222 104.972 245.062 107.674 241.254C109.436 238.771 110.646 235.988 112 233.283C113.988 229.313 115.805 225.243 118.836 221.897C124.23 215.942 131.247 212.634 138.541 209.763C143.989 207.618 149.658 206.071 155.003 203.653C156.257 203.086 157.518 202.362 157.562 200.794C157.608 199.156 156.133 198.629 155.012 197.935C154.479 197.604 153.822 197.454 153.204 197.28C150.4 196.492 147.497 196.37 144.622 196.175C135.861 195.581 127.252 194.249 118.964 191.235C116.446 190.32 114.007 188.987 110.843 189.972ZM206.713 229.283C216.448 225.244 226.492 222.113 236.664 219.39C236.565 219.034 236.57 218.873 236.493 218.805C236.011 218.383 235.531 217.952 235.012 217.577C221.028 207.471 205.515 200.589 189.026 195.757C188.153 195.501 187.615 195.565 187.157 196.461C183.958 202.721 181.014 209.043 180.006 216.125C178.837 224.339 185.259 232.085 193.53 232.271C198.083 232.374 202.255 230.894 206.713 229.283Z" fill="black"/>
</g>
<defs>
<filter id="filter0_f_5292_16055" x="17" y="161" width="246" height="113" filterUnits="userSpaceOnUse" color-interpolation-filters="sRGB">
<feFlood flood-opacity="0" result="BackgroundImageFix"/>
<feBlend mode="normal" in="SourceGraphic" in2="BackgroundImageFix" result="shape"/>
<feGaussianBlur stdDeviation="22" result="effect1_foregroundBlur_5292_16055"/>
</filter>
<clipPath id="clip0_5292_16055">
<rect width="266" height="266" fill="white"/>
</clipPath>
</defs>
</svg>
