<svg width="48" height="48" viewBox="0 0 48 48" fill="none" xmlns="http://www.w3.org/2000/svg">
<path d="M42 13C42 16.3137 39.3138 19 36 19C32.6862 19 30 16.3137 30 13C30 9.6863 32.6862 7 36 7C39.3138 7 42 9.6863 42 13Z" stroke="#28282B" stroke-width="2" stroke-linejoin="round"/>
<path d="M18 24C18 27.3138 15.3137 30 12 30C8.6863 30 6 27.3138 6 24C6 20.6862 8.6863 18 12 18C15.3137 18 18 20.6862 18 24Z" stroke="#28282B" stroke-width="2" stroke-linejoin="round"/>
<path d="M42 35C42 38.3138 39.3138 41 36 41C32.6862 41 30 38.3138 30 35C30 31.6862 32.6862 29 36 29C39.3138 29 42 31.6862 42 35Z" stroke="#28282B" stroke-width="2" stroke-linejoin="round"/>
<path d="M17.4609 21.499L30.4609 15.5M17.4609 26.5L30.4609 32.499" stroke="#28282B" stroke-width="2" stroke-linejoin="round"/>
</svg>
