<svg width="48" height="48" viewBox="0 0 48 48" fill="none" xmlns="http://www.w3.org/2000/svg">
<path d="M37.948 16.0026C36.9214 16.4693 35.8147 16.7759 34.668 16.9226C35.8414 16.2159 36.748 15.0959 37.1747 13.7493C36.068 14.4159 34.8414 14.8826 33.548 15.1493C32.4947 14.0026 31.0147 13.3359 29.3347 13.3359C26.2014 13.3359 23.6414 15.8959 23.6414 19.0559C23.6414 19.5093 23.6947 19.9493 23.788 20.3626C19.0414 20.1226 14.8147 17.8426 12.0014 14.3893C11.508 15.2293 11.228 16.2159 11.228 17.2559C11.228 19.2426 12.228 21.0026 13.7747 22.0026C12.828 22.0026 11.948 21.7359 11.1747 21.3359V21.3759C11.1747 24.1493 13.148 26.4693 15.7614 26.9893C14.9223 27.2189 14.0415 27.2508 13.188 27.0826C13.5502 28.2192 14.2594 29.2138 15.216 29.9265C16.1727 30.6392 17.3286 31.0342 18.5214 31.0559C16.4995 32.6565 13.9933 33.5217 11.4147 33.5093C10.9614 33.5093 10.508 33.4826 10.0547 33.4293C12.588 35.0559 15.6014 36.0026 18.828 36.0026C29.3347 36.0026 35.108 27.2826 35.108 19.7226C35.108 19.4693 35.108 19.2293 35.0947 18.9759C36.2147 18.1759 37.1747 17.1626 37.948 16.0026Z" fill="white"/>
</svg>
