<svg width="45" height="45" viewBox="0 0 45 45" fill="none" xmlns="http://www.w3.org/2000/svg">
<rect x="0.75" y="0.75" width="43.5" height="43.5" rx="11.25" stroke="#28282B" stroke-width="1.5"/>
<path d="M30.6615 34.1641V31.8307C30.6615 30.5931 30.1698 29.4061 29.2946 28.5309C28.4195 27.6557 27.2325 27.1641 25.9948 27.1641H18.9948C17.7571 27.1641 16.5701 27.6557 15.695 28.5309C14.8198 29.4061 14.3281 30.5931 14.3281 31.8307V34.1641" stroke="#28282B" stroke-width="1.5" stroke-linecap="round" stroke-linejoin="round"/>
<path d="M22.4948 22.4974C25.0721 22.4974 27.1615 20.4081 27.1615 17.8307C27.1615 15.2534 25.0721 13.1641 22.4948 13.1641C19.9175 13.1641 17.8281 15.2534 17.8281 17.8307C17.8281 20.4081 19.9175 22.4974 22.4948 22.4974Z" stroke="#28282B" stroke-width="1.5" stroke-linecap="round" stroke-linejoin="round"/>
</svg>
